<svg width="16" height="24" viewBox="0 0 16 24" fill="none" xmlns="http://www.w3.org/2000/svg">
<path fill-rule="evenodd" clip-rule="evenodd" d="M5 5H11V4.50468C11 4.21404 11.226 4 11.5047 4H12.4953C12.786 4 13 4.22595 13 4.50468V5H14.7568C15.3028 5 15.75 5.44725 15.75 5.99896V7.00104C15.75 7.55734 15.3053 8 14.7568 8H1.24317C0.697169 8 0.25 7.55275 0.25 7.00104V5.99896C0.25 5.44266 0.694659 5 1.24317 5H3V4.50468C3 4.21404 3.22596 4 3.50468 4H4.49532C4.78596 4 5 4.22595 5 4.50468V5ZM1.50468 9H2.49532C2.78596 9 3 9.22596 3 9.50468V10.4953C3 10.786 2.77404 11 2.49532 11H1.50468C1.21404 11 1 10.774 1 10.4953V9.50468C1 9.21404 1.22595 9 1.50468 9ZM4.50468 9H5.49532C5.78596 9 6 9.22596 6 9.50468V10.4953C6 10.786 5.77404 11 5.49532 11H4.50468C4.21404 11 4 10.774 4 10.4953V9.50468C4 9.21404 4.22596 9 4.50468 9ZM7.50468 9H8.49532C8.78596 9 9 9.22596 9 9.50468V10.4953C9 10.786 8.77404 11 8.49532 11H7.50468C7.21404 11 7 10.774 7 10.4953V9.50468C7 9.21404 7.22596 9 7.50468 9ZM1.50468 12H2.49532C2.78596 12 3 12.226 3 12.5047V13.4953C3 13.786 2.77404 14 2.49532 14H1.50468C1.21404 14 1 13.774 1 13.4953V12.5047C1 12.214 1.22595 12 1.50468 12ZM4.50468 12H5.49532C5.78596 12 6 12.226 6 12.5047V13.4953C6 13.786 5.77404 14 5.49532 14H4.50468C4.21404 14 4 13.774 4 13.4953V12.5047C4 12.214 4.22596 12 4.50468 12ZM7.50468 12H8.49532C8.78596 12 9 12.226 9 12.5047V13.4953C9 13.786 8.77404 14 8.49532 14H7.50468C7.21404 14 7 13.774 7 13.4953V12.5047C7 12.214 7.22596 12 7.50468 12ZM1.50468 15H2.49532C2.78596 15 3 15.226 3 15.5047V16.4953C3 16.786 2.77404 17 2.49532 17H1.50468C1.21404 17 1 16.774 1 16.4953V15.5047C1 15.214 1.22595 15 1.50468 15ZM4.50468 15H5.49532C5.78596 15 6 15.226 6 15.5047V16.4953C6 16.786 5.77404 17 5.49532 17H4.50468C4.21404 17 4 16.774 4 16.4953V15.5047C4 15.214 4.22596 15 4.50468 15ZM7.50468 15H8.49532C8.78596 15 9 15.226 9 15.5047V16.4953C9 16.786 8.77404 17 8.49532 17H7.50468C7.21404 17 7 16.774 7 16.4953V15.5047C7 15.214 7.22596 15 7.50468 15ZM10.5047 9H11.4953C11.786 9 12 9.22596 12 9.50468V10.4953C12 10.786 11.774 11 11.4953 11H10.5047C10.214 11 10 10.774 10 10.4953V9.50468C10 9.21404 10.226 9 10.5047 9ZM10.5047 12H11.4953C11.786 12 12 12.226 12 12.5047V13.4953C12 13.786 11.774 14 11.4953 14H10.5047C10.214 14 10 13.774 10 13.4953V12.5047C10 12.214 10.226 12 10.5047 12ZM10.5047 15H11.4953C11.786 15 12 15.226 12 15.5047V16.4953C12 16.786 11.774 17 11.4953 17H10.5047C10.214 17 10 16.774 10 16.4953V15.5047C10 15.214 10.226 15 10.5047 15ZM13.5047 15H14.4953C14.786 15 15 15.226 15 15.5047V16.4953C15 16.786 14.774 17 14.4953 17H13.5047C13.214 17 13 16.774 13 16.4953V15.5047C13 15.214 13.226 15 13.5047 15ZM1.50468 18H2.49532C2.78596 18 3 18.226 3 18.5047V19.4953C3 19.786 2.77404 20 2.49532 20H1.50468C1.21404 20 1 19.774 1 19.4953V18.5047C1 18.214 1.22595 18 1.50468 18ZM4.50468 18H5.49532C5.78596 18 6 18.226 6 18.5047V19.4953C6 19.786 5.77404 20 5.49532 20H4.50468C4.21404 20 4 19.774 4 19.4953V18.5047C4 18.214 4.22596 18 4.50468 18ZM7.50468 18H8.49532C8.78596 18 9 18.226 9 18.5047V19.4953C9 19.786 8.77404 20 8.49532 20H7.50468C7.21404 20 7 19.774 7 19.4953V18.5047C7 18.214 7.22596 18 7.50468 18ZM10.5047 18H11.4953C11.786 18 12 18.226 12 18.5047V19.4953C12 19.786 11.774 20 11.4953 20H10.5047C10.214 20 10 19.774 10 19.4953V18.5047C10 18.214 10.226 18 10.5047 18ZM13.5047 18H14.4953C14.786 18 15 18.226 15 18.5047V19.4953C15 19.786 14.774 20 14.4953 20H13.5047C13.214 20 13 19.774 13 19.4953V18.5047C13 18.214 13.226 18 13.5047 18ZM13.5047 12H14.4953C14.786 12 15 12.226 15 12.5047V13.4953C15 13.786 14.774 14 14.4953 14H13.5047C13.214 14 13 13.774 13 13.4953V12.5047C13 12.214 13.226 12 13.5047 12ZM13.5047 9H14.4953C14.786 9 15 9.22596 15 9.50468V10.4953C15 10.786 14.774 11 14.4953 11H13.5047C13.214 11 13 10.774 13 10.4953V9.50468C13 9.21404 13.226 9 13.5047 9Z" fill="#90A3BF"/>
</svg>
